<svg width="24" height="24" viewBox="0 0 24 24" fill="none" xmlns="http://www.w3.org/2000/svg">
<path d="M9.26953 2.89048C10.8959 1.70317 13.1041 1.70317 14.7305 2.89048L20.29 6.99986C21.3566 7.77506 21.9913 9.01148 22 10.3299V17.7704C21.9418 20.0887 20.0756 21.9374 17.7832 21.9999H6.2168C3.92439 21.9374 2.05824 20.0887 2 17.7704V10.3407C2.0061 9.01635 2.64521 7.774 3.71973 6.99986L9.26953 2.89048ZM13.8398 4.10044C12.7438 3.30007 11.2562 3.30007 10.1602 4.10044L4.61035 8.20005C3.91856 8.69406 3.50534 9.49062 3.5 10.3407V17.7704C3.56511 19.3328 4.87747 20.5506 6.44043 20.4999H17.5596C19.1246 20.5561 20.4403 19.3352 20.5 17.7704V10.3299C20.4947 9.48547 20.0807 8.69614 19.3896 8.21079L13.8398 4.10044ZM16.5 15.7508C16.9141 15.7508 17.2497 16.0859 17.25 16.4999C17.25 16.9141 16.9142 17.2499 16.5 17.2499H7.5C7.08579 17.2499 6.75 16.9141 6.75 16.4999C6.75026 16.0859 7.08595 15.7508 7.5 15.7508H16.5Z" fill="#495057"/>
</svg>
