<svg width="24" height="24" viewBox="0 0 24 24" fill="none" xmlns="http://www.w3.org/2000/svg">
<path fill-rule="evenodd" clip-rule="evenodd" d="M21.7401 14.7403L21.8801 15.4303C22.0326 16.0198 21.9082 16.6465 21.5423 17.1332C21.1764 17.6198 20.6087 17.9132 20.0001 17.9303H16.1901C16.191 19.5489 14.9078 20.8764 13.2901 20.9303H5.00011C4.08464 20.9151 3.22623 20.4827 2.66911 19.7562C2.112 19.0296 1.91719 18.0883 2.14011 17.2003L2.35011 16.2003C2.59429 14.8228 3.78124 13.812 5.18011 13.7903H13.1201C13.4745 13.3668 13.9979 13.1216 14.5501 13.1203H19.8401C20.7741 13.1501 21.563 13.8227 21.7401 14.7403ZM19.9801 16.4203C20.1021 16.4158 20.2157 16.3571 20.2901 16.2603C20.4209 16.1283 20.4868 15.9454 20.4701 15.7603L20.3301 15.0703C20.303 14.8468 20.1242 14.6721 19.9001 14.6503H14.6101C14.495 14.6511 14.3872 14.7068 14.3201 14.8003C14.0333 15.1306 13.6175 15.3203 13.1801 15.3203H5.2401C4.55552 15.337 3.98189 15.8431 3.8801 16.5203L3.6701 17.5203C3.56754 18.0128 3.68837 18.5255 4.0001 18.9203C4.2436 19.2274 4.60854 19.4135 5.0001 19.4303H13.2601C14.0649 19.3769 14.6834 18.6966 14.6601 17.8903C14.6764 17.0736 15.3433 16.4201 16.1601 16.4203H19.9801Z" fill="#495057"/>
<path fill-rule="evenodd" clip-rule="evenodd" d="M13.1001 8.00031C13.1001 10.2095 11.3092 12.0003 9.1001 12.0003C6.89096 12.0003 5.1001 10.2095 5.1001 8.00031V6.43031C5.1001 4.57464 6.60443 3.07031 8.4601 3.07031H9.7701C11.6141 3.08678 13.1002 4.58629 13.1001 6.43031V8.00031ZM8.4601 4.57031C7.43285 4.57031 6.6001 5.40306 6.6001 6.43031L6.6301 8.00031C6.78969 9.25949 7.86086 10.2035 9.1301 10.2035C10.3993 10.2035 11.4705 9.25949 11.6301 8.00031V6.43031C11.6301 5.40306 10.7974 4.57031 9.7701 4.57031H8.4601Z" fill="#495057"/>
<path fill-rule="evenodd" clip-rule="evenodd" d="M20.6801 8.25031C20.6801 9.90717 19.337 11.2503 17.6801 11.2503C16.0233 11.2503 14.6801 9.90717 14.6801 8.25031V7.10031C14.6799 5.72403 15.784 4.60216 17.1601 4.58031H18.1601C19.5519 4.58031 20.6801 5.70855 20.6801 7.10031V8.25031ZM17.1801 6.10031C16.6278 6.10031 16.1801 6.54803 16.1801 7.10031V8.25031C16.1801 9.07874 16.8517 9.75031 17.6801 9.75031C18.5085 9.75031 19.1801 9.07874 19.1801 8.25031V7.10031C19.1801 6.54803 18.7324 6.10031 18.1801 6.10031H17.1801Z" fill="#495057"/>
</svg>
